{
	"scenes":[{
		"nodes":[0]
	}],
	"asset":{
		"version":"2.0",
		"generator":"Created using the official Cinema 4D glTF Exporter 1.000x284978"
	},
	"accessors":[{
		"bufferView":0,
		"type":"SCALAR",
		"componentType":5123,
		"count":50040,
		"byteOffset":0,
		"min":[0],
		"max":[9327]
	},
	{
		"bufferView":1,
		"type":"VEC3",
		"componentType":5126,
		"count":9328,
		"byteOffset":0,
		"min":[-137.08702087402345,
		-154.45924377441407,
		-206.4596405029297],
		"max":[89.3268051147461,
		61.04594802856445,
		19.27304458618164]
	},
	{
		"bufferView":1,
		"type":"VEC3",
		"componentType":5126,
		"count":9328,
		"byteOffset":12,
		"min":[-0.9997689723968506,
		-0.9999969005584717,
		-0.9999149441719055],
		"max":[0.9999620318412781,
		0.9998433589935303,
		0.9999862909317017]
	},
	{
		"bufferView":1,
		"type":"VEC2",
		"componentType":5126,
		"count":9328,
		"byteOffset":24,
		"min":[0.0,
		0.0],
		"max":[1.0,
		0.9999998807907105]
	}],
	"nodes":[{
		"name":"Extrude.1",
		"translation":[-43.0,
		0.0,
		19.0],
		"mesh":0,
		"rotation":[0.0,
		-0.36650121212005618,
		0.0,
		0.9304175972938538],
		"scale":[1.0,
		1.0,
		1.0]
	}],
	"meshes":[{
		"name":"Extrude.1",
		"primitives":[{
			"attributes":{
				"POSITION":1,
				"NORMAL":2,
				"TEXCOORD_0":3
			},
			"indices":0,
			"material":0
		}]
	}],
	"bufferViews":[{
		"target":34963,
		"buffer":0,
		"byteOffset":0,
		"byteLength":100080
	},
	{
		"target":34962,
		"buffer":0,
		"byteOffset":100080,
		"byteLength":298496,
		"byteStride":32
	}],
	"buffers":[{
		"uri":"data:application/octet-stream;base64,",
		"byteLength":398576
	}],
	"materials":[{
		"pbrMetallicRoughness":{
			"baseColorFactor":[1.0,
			1.0,
			1.0,
			1.0],
			"metallicFactor":0.0,
			"roughnessFactor":0.5
		},
		"emissiveFactor":[0.0,
		0.0,
		0.0],
		"alphaMode":"OPAQUE",
		"doubleSided":true,
		"name":"Mat"
	}]
}