{
	"asset":{
		"version":"2.0",
		"generator":"Created using the official Cinema 4D glTF Exporter 1.000x284978"
	},
	"scenes":[{
		"nodes":[0]
	}],
	"nodes":[{
		"translation":[0.0,
		1.5765355825424195,
		0.22156763076782227],
		"name":"Boole",
		"scale":[1.0,
		1.0,
		1.0],
		"rotation":[-0.06975647062063217,
		0.0,
		0.0,
		-0.9975640773773193],
		"children":[1,
		2]
	},
	{
		"name":"Boole-Mat",
		"mesh":0
	},
	{
		"name":"Boole-Mat.1",
		"mesh":1
	}],
	"meshes":[{
		"primitives":[{
			"material":0,
			"attributes":{
				"POSITION":1,
				"NORMAL":2,
				"TEXCOORD_0":3
			},
			"indices":0
		}],
		"name":"Boole-Mat"
	},
	{
		"primitives":[{
			"material":1,
			"attributes":{
				"POSITION":5,
				"NORMAL":6,
				"TEXCOORD_0":7
			},
			"indices":4
		}],
		"name":"Boole-Mat.1"
	}],
	"accessors":[{
		"bufferView":0,
		"type":"SCALAR",
		"componentType":5123,
		"count":17139,
		"byteOffset":0,
		"min":[0],
		"max":[3660]
	},
	{
		"bufferView":1,
		"type":"VEC3",
		"componentType":5126,
		"count":3661,
		"byteOffset":0,
		"min":[-4.5,
		-0.550000011920929,
		-4.491120338439941],
		"max":[4.5,
		7.261800765991211,
		4.491120338439941]
	},
	{
		"bufferView":1,
		"type":"VEC3",
		"componentType":5126,
		"count":3661,
		"byteOffset":12,
		"min":[-0.9997807741165161,
		-1.0,
		-0.9991241693496704],
		"max":[0.9997807741165161,
		1.0,
		0.9991241693496704]
	},
	{
		"bufferView":1,
		"type":"VEC2",
		"componentType":5126,
		"count":3661,
		"byteOffset":24,
		"min":[0.0,
		0.0],
		"max":[1.0,
		1.0]
	},
	{
		"bufferView":2,
		"type":"SCALAR",
		"componentType":5123,
		"count":34260,
		"byteOffset":0,
		"min":[0],
		"max":[6008]
	},
	{
		"bufferView":3,
		"type":"VEC3",
		"componentType":5126,
		"count":6009,
		"byteOffset":0,
		"min":[-4.699999809265137,
		-0.8999999761581421,
		-4.690725803375244],
		"max":[4.699999809265137,
		8.150988578796387,
		4.690725803375244]
	},
	{
		"bufferView":3,
		"type":"VEC3",
		"componentType":5126,
		"count":6009,
		"byteOffset":12,
		"min":[-1.0,
		-1.0,
		-1.0],
		"max":[1.0,
		1.0,
		1.0]
	},
	{
		"bufferView":3,
		"type":"VEC2",
		"componentType":5126,
		"count":6009,
		"byteOffset":24,
		"min":[0.0,
		0.0],
		"max":[1.0,
		1.0]
	}],
	"bufferViews":[{
		"buffer":0,
		"byteOffset":0,
		"byteLength":34278,
		"target":34963
	},
	{
		"buffer":0,
		"byteOffset":34280,
		"byteLength":117152,
		"target":34962,
		"byteStride":32
	},
	{
		"buffer":1,
		"byteOffset":0,
		"byteLength":68520,
		"target":34963
	},
	{
		"buffer":1,
		"byteOffset":68520,
		"byteLength":192288,
		"target":34962,
		"byteStride":32
	}],
	"buffers":[{
		"uri":"data:application/octet-stream;base64,",
		"byteLength":151432
	},
	{
		"uri":"data:application/octet-stream;base64,",
		"byteLength":260808
	}],
	"materials":[{
		"doubleSided":true,
		"pbrMetallicRoughness":{
			"baseColorFactor":[1.0,
			0.0,
			0.0,
			1.0],
			"metallicFactor":0.0,
			"roughnessFactor":0.5
		},
		"emissiveFactor":[0.0,
		0.0,
		0.0],
		"alphaMode":"OPAQUE",
		"name":"Mat"
	},
	{
		"doubleSided":true,
		"pbrMetallicRoughness":{
			"baseColorFactor":[0.015666666666666507,
			0.47000000000000005,
			0.0,
			1.0],
			"metallicFactor":0.0,
			"roughnessFactor":0.5
		},
		"emissiveFactor":[0.0,
		0.0,
		0.0],
		"alphaMode":"OPAQUE",
		"name":"Mat.1"
	}]
}