{
	"accessors":[{
		"bufferView":0,
		"byteOffset":0,
		"type":"SCALAR",
		"componentType":5123,
		"count":102348,
		"min":[0],
		"max":[19617]
	},
	{
		"bufferView":1,
		"byteOffset":0,
		"type":"VEC3",
		"componentType":5126,
		"count":19618,
		"min":[-14.635030746459961,
		-5.499854564666748,
		-20.562633514404298],
		"max":[14.789745330810547,
		5.499854564666748,
		0.5]
	},
	{
		"bufferView":1,
		"byteOffset":12,
		"type":"VEC3",
		"componentType":5126,
		"count":19618,
		"min":[-0.9999927282333374,
		-0.999995231628418,
		-1.0],
		"max":[0.9999924898147583,
		0.9999954700469971,
		1.0]
	},
	{
		"bufferView":1,
		"byteOffset":24,
		"type":"VEC2",
		"componentType":5126,
		"count":19618,
		"min":[0.0,
		0.0],
		"max":[1.0,
		1.0]
	}],
	"asset":{
		"version":"2.0",
		"generator":"Created using the official Cinema 4D glTF Exporter 1.000x284978"
	},
	"nodes":[{
		"name":"glasses.1",
		"mesh":0,
		"translation":[-0.09071580320596695,
		0.0,
		0.0],
		"rotation":[0.0,
		0.0,
		0.0,
		-1.0],
		"scale":[1.0,
		1.0,
		1.0]
	}],
	"scenes":[{
		"nodes":[0]
	}],
	"meshes":[{
		"name":"glasses.1",
		"primitives":[{
			"attributes":{
				"POSITION":1,
				"NORMAL":2,
				"TEXCOORD_0":3
			},
			"indices":0,
			"material":0
		}]
	}],
	"bufferViews":[{
		"buffer":0,
		"byteOffset":0,
		"byteLength":204696,
		"target":34963
	},
	{
		"buffer":0,
		"byteOffset":204696,
		"byteLength":627776,
		"target":34962,
		"byteStride":32
	}],
	"buffers":[{
		"uri":"data:application/octet-stream;base64,",
		"byteLength":832472
	}],
	"materials":[{
		"pbrMetallicRoughness":{
			"baseColorFactor":[1.0,
			0.7000000000000006,
			0.0,
			1.0],
			"metallicFactor":0.39,
			"roughnessFactor":0.08
		},
		"emissiveFactor":[0.0,
		0.0,
		0.0],
		"alphaMode":"OPAQUE",
		"name":"Mat",
		"doubleSided":true
	}]
}