{
	"accessors":[{
		"bufferView":0,
		"byteOffset":0,
		"type":"SCALAR",
		"componentType":5123,
		"count":7200,
		"min":[0],
		"max":[1323]
	},
	{
		"bufferView":1,
		"byteOffset":0,
		"type":"VEC3",
		"componentType":5126,
		"count":1324,
		"min":[-1.9960534572601319,
		-2.0,
		-1.9921146631240845],
		"max":[1.9960534572601319,
		2.0,
		1.9921146631240845]
	},
	{
		"bufferView":1,
		"byteOffset":12,
		"type":"VEC3",
		"componentType":5126,
		"count":1324,
		"min":[-0.9980272650718689,
		-1.0,
		-0.9960642457008362],
		"max":[0.9980272650718689,
		1.0,
		0.9960642457008362]
	},
	{
		"bufferView":1,
		"byteOffset":24,
		"type":"VEC2",
		"componentType":5126,
		"count":1324,
		"min":[0.0,
		0.0],
		"max":[1.0,
		1.0]
	}],
	"asset":{
		"version":"2.0",
		"generator":"Created using the official Cinema 4D glTF Exporter 1.000x284978"
	},
	"nodes":[{
		"name":"Sphere",
		"mesh":0
	}],
	"scenes":[{
		"nodes":[0]
	}],
	"meshes":[{
		"name":"Sphere",
		"primitives":[{
			"attributes":{
				"POSITION":1,
				"NORMAL":2,
				"TEXCOORD_0":3
			},
			"indices":0,
			"material":0
		}]
	}],
	"bufferViews":[{
		"buffer":0,
		"byteOffset":0,
		"byteLength":14400,
		"target":34963
	},
	{
		"buffer":0,
		"byteOffset":14400,
		"byteLength":42368,
		"target":34962,
		"byteStride":32
	}],
	"buffers":[{
		"uri":"data:application/octet-stream;base64,",
		"byteLength":56768
	}],
	"materials":[{
		"pbrMetallicRoughness":{
			"baseColorFactor":[1.0,
			0.0,
			0.0,
			1.0],
			"metallicFactor":0.24,
			"roughnessFactor":0.12
		},
		"emissiveFactor":[0.0,
		0.0,
		0.0],
		"alphaMode":"OPAQUE",
		"name":"Mat",
		"doubleSided":true
	}]
}